<svg version="1.2" xmlns="http://www.w3.org/2000/svg" viewBox="0 0 89 89" width="500" height="500">
	<title>logo (1)-svg</title>
	<style>
		.s0 { fill: #ff0035 } 
		.s1 { fill: #ffffff } 
	</style>
	<g id="Layer">
		<g id="Layer">
		</g>
		<g id="Layer">
			<path id="Layer" fill-rule="evenodd" class="s0" d="m44.2 11.5c0-0.1 22.6 30.2 22.6 42.7 0 12.5-10.1 22.7-22.6 22.7-12.5 0-22.7-10.2-22.7-22.7 0-12.5 22.6-42.7 22.7-42.7z"/>
			<path id="Layer" fill-rule="evenodd" class="s1" d="m44.2 11.5c0-0.1 22.6 30.2 22.6 42.7 0 12.5-10.1 22.7-22.6 22.7-12.5 0-22.7-10.2-22.7-22.7 0-12.5 22.6-42.7 22.7-42.7zm-9.9 25c-3.8 6.7-7.2 13.4-7.2 17.7 0 9.5 7.6 17.1 17.1 17.1 9.4 0 17.1-7.6 17.1-17.1 0-3.8-2.8-9.6-6-15.5-3.6-6.5-7.9-13.1-11.1-17.7-2.8 4.1-6.6 9.7-9.9 15.5z"/>
		</g>
		<g id="Layer">
			<path id="Layer" class="s1" d="m55.7 72.9l-11.5-15.2-11.8 15.4-3.7-3.8 12-16-11.9-15.5 3.2-5 12.2 16.1 12.6-16.5 2.6 5.4-11.9 15.5 12.3 15.7z"/>
		</g>
	</g>
</svg>